<?xml version="1.0" encoding="UTF-8"?><svg id="Layer_1" xmlns="http://www.w3.org/2000/svg" viewBox="0 0 167.46 152.78"><defs><style>.cls-1{fill:#231f20;font-family:Arial-Black, 'Arial Black';font-size:7.44px;font-weight:800;letter-spacing:.13em;}.cls-2{fill:#ed2c85;}.cls-3{fill:#6d3c97;}.cls-4{fill:#ad2f92;}.cls-5{fill:#442f91;}.cls-6{fill:#4a4ea1;}.cls-7{fill:#583895;}.cls-8{fill:#4d3594;}.cls-9{fill:#5064ae;}</style></defs><polygon class="cls-9" points="121.72 44.41 129 22.21 136.28 0 151.87 17.41 167.46 34.82 144.59 39.61 121.72 44.41"/><polygon class="cls-5" points="75.97 54.01 83.25 31.8 90.53 9.6 106.13 27 121.72 44.41 98.84 49.21 75.97 54.01"/><polygon class="cls-8" points="30.23 63.6 37.51 41.4 44.79 19.19 60.38 36.6 75.97 54.01 53.1 58.81 30.23 63.6"/><polygon class="cls-3" points="61.41 98.42 68.69 76.21 75.97 54.01 91.56 71.42 107.15 88.82 84.28 93.62 61.41 98.42"/><polygon class="cls-6" points="121.72 44.41 106.12 27 90.53 9.6 113.41 4.8 136.28 0 129 22.21 121.72 44.41"/><polygon class="cls-7" points="107.15 88.82 91.56 71.42 75.97 54.01 98.84 49.21 121.72 44.41 114.43 66.62 107.15 88.82"/><polygon class="cls-2" points="0 152.78 7.28 130.57 14.56 108.37 30.15 125.77 45.74 143.18 22.87 147.98 0 152.78"/><polygon class="cls-4" points="45.74 143.18 30.15 125.77 14.56 108.37 37.43 103.57 60.3 98.77 53.02 120.98 45.74 143.18"/><polygon class="cls-3" points="61.41 98.42 45.82 81.01 30.23 63.6 53.1 58.81 75.97 54.01 68.69 76.21 61.41 98.42"/><polygon class="cls-4" points="92.59 133.24 77 115.83 61.41 98.42 84.28 93.62 107.15 88.82 99.87 111.03 92.59 133.24"/><text class="cls-1" transform="translate(102.44 141.11) rotate(-72.1)"><tspan x="0" y="0">EPIC HOME CINEMA</tspan></text></svg>